# xmcd
#
# Track frame offsets:
#	182
#	14540
#	28080
#	41917
#	58170
#	73420
#	88115
#	104292
#	118662
#	133095
#	147125
#	160725
#	174457
#	189000
#	202675
#	218262
#	231797
#	245615
#	258452
#	271455
#	285005
#	300680
#
# Disc length: 4182
#
# Revision: 2
# Processed by: cddbd v1.5.1PL0 Copyright (c) Steve Scherf et al.
# Submitted via: audiograbber 1.82.02
# Normalized: r1:DSETVAR1,TDELIM( - )
#
DISCID=38105416
DTITLE=Various Artist - Mississippi Delta Blues
DYEAR=1900
DGENRE=Blues
TTITLE0=Charley Patton - Mississippi Boweavil Blues
TTITLE1=Charley Patton - Pony Blues
TTITLE2=Charley Patton - Pea Vine Blues
TTITLE3=Tommy Johnson - Cool Drink Of Water Blues
TTITLE4=Tommy Johnson - Big Road Blues
TTITLE5=Tommy Johnson - Big Fat Mama Blues
TTITLE6=Ishman Bracey - Trouble Hearted Blues
TTITLE7=William Harris - Bull Frog Blues
TTITLE8=Son House - My Black Mama Pt.1
TTITLE9=Son House - Preachin' The Blues Pt.1
TTITLE10=Son House - Walking Blues
TTITLE11=Willie Brown - Future Blues
TTITLE12=Bukka White - The Panama Limited
TTITLE13=Skip James - Devil Got My Woman
TTITLE14=Big Joe Williams - Baby Please Don't Go
TTITLE15=Robert Johnson - I Believe I'll Dust My Broom
TTITLE16=Bukka White - Shake 'Em On Down
TTITLE17=Tommy McClennan - Bottle It Up And Go
TTITLE18=Robert Petway - Catfish Blues
TTITLE19=Tony Hollins - Crawlin' King Snake
TTITLE20=Muddy Waters - Country Blues
TTITLE21=Robert Lockwood - Take A Little Walk With Me
EXTD=
EXTT0=
EXTT1=
EXTT2=
EXTT3=
EXTT4=
EXTT5=
EXTT6=
EXTT7=
EXTT8=
EXTT9=
EXTT10=
EXTT11=
EXTT12=
EXTT13=
EXTT14=
EXTT15=
EXTT16=
EXTT17=
EXTT18=
EXTT19=
EXTT20=
EXTT21=
PLAYORDER=
